<mxfile host="65bd71144e" modified="2020-10-23T10:54:55.818Z" agent="5.0 (Windows NT 10.0; Win64; x64) AppleWebKit/537.36 (KHTML, like Gecko) Code/1.50.1 Chrome/83.0.4103.122 Electron/9.2.1 Safari/537.36" etag="rzpQPgl218ZgOoycMSwL" version="13.6.5" pages="2">
    <diagram id="XXdrvxFc04gMoaGp4ujh" name="Page-1">
        <mxGraphModel dx="1147" dy="792" grid="1" gridSize="10" guides="1" tooltips="1" connect="1" arrows="1" fold="1" page="1" pageScale="1" pageWidth="1700" pageHeight="1100" math="0" shadow="0">
            <root>
                <mxCell id="0"/>
                <mxCell id="1" parent="0"/>
                <mxCell id="aS_Waa_V5vZPWyKBkBQV-1" value="Request" style="swimlane;fontStyle=1;align=center;verticalAlign=top;childLayout=stackLayout;horizontal=1;startSize=26;horizontalStack=0;resizeParent=1;resizeParentMax=0;resizeLast=0;collapsible=1;marginBottom=0;" parent="1" vertex="1">
                    <mxGeometry x="110" y="260" width="160" height="148" as="geometry">
                        <mxRectangle x="120" y="80" width="80" height="26" as="alternateBounds"/>
                    </mxGeometry>
                </mxCell>
                <mxCell id="aS_Waa_V5vZPWyKBkBQV-2" value="+ url: string&#10;+ port: int&#10;+ type: string&#10;+ hostname: string" style="text;strokeColor=none;fillColor=none;align=left;verticalAlign=top;spacingLeft=4;spacingRight=4;overflow=hidden;rotatable=0;points=[[0,0.5],[1,0.5]];portConstraint=eastwest;" parent="aS_Waa_V5vZPWyKBkBQV-1" vertex="1">
                    <mxGeometry y="26" width="160" height="74" as="geometry"/>
                </mxCell>
                <mxCell id="aS_Waa_V5vZPWyKBkBQV-3" value="" style="line;strokeWidth=1;fillColor=none;align=left;verticalAlign=middle;spacingTop=-1;spacingLeft=3;spacingRight=3;rotatable=0;labelPosition=right;points=[];portConstraint=eastwest;" parent="aS_Waa_V5vZPWyKBkBQV-1" vertex="1">
                    <mxGeometry y="100" width="160" height="8" as="geometry"/>
                </mxCell>
                <mxCell id="aS_Waa_V5vZPWyKBkBQV-4" value="+ GetData(): LPSTR" style="text;strokeColor=none;fillColor=none;align=left;verticalAlign=top;spacingLeft=4;spacingRight=4;overflow=hidden;rotatable=0;points=[[0,0.5],[1,0.5]];portConstraint=eastwest;" parent="aS_Waa_V5vZPWyKBkBQV-1" vertex="1">
                    <mxGeometry y="108" width="160" height="40" as="geometry"/>
                </mxCell>
                <mxCell id="aS_Waa_V5vZPWyKBkBQV-31" value="Relation" style="endArrow=none;html=1;endSize=12;startArrow=diamondThin;startSize=14;startFill=0;edgeStyle=orthogonalEdgeStyle;exitX=1.01;exitY=0.595;exitDx=0;exitDy=0;exitPerimeter=0;entryX=0.5;entryY=0;entryDx=0;entryDy=0;endFill=0;" parent="1" source="aS_Waa_V5vZPWyKBkBQV-21" target="aS_Waa_V5vZPWyKBkBQV-16" edge="1">
                    <mxGeometry x="-0.2258" relative="1" as="geometry">
                        <mxPoint x="450" y="40" as="sourcePoint"/>
                        <mxPoint x="610" y="40" as="targetPoint"/>
                        <mxPoint as="offset"/>
                    </mxGeometry>
                </mxCell>
                <mxCell id="aS_Waa_V5vZPWyKBkBQV-32" value="1..n" style="resizable=0;html=1;align=left;verticalAlign=top;labelBackgroundColor=#ffffff;fontSize=10;" parent="aS_Waa_V5vZPWyKBkBQV-31" connectable="0" vertex="1">
                    <mxGeometry x="-1" relative="1" as="geometry"/>
                </mxCell>
                <mxCell id="aS_Waa_V5vZPWyKBkBQV-33" value="1..n" style="resizable=0;html=1;align=right;verticalAlign=top;labelBackgroundColor=#ffffff;fontSize=10;" parent="aS_Waa_V5vZPWyKBkBQV-31" connectable="0" vertex="1">
                    <mxGeometry x="1" relative="1" as="geometry">
                        <mxPoint x="19.5" y="-40" as="offset"/>
                    </mxGeometry>
                </mxCell>
                <mxCell id="U8UAb2lUkk0ne-ptLEVk-8" value="Extends" style="endArrow=block;endSize=16;endFill=0;html=1;exitX=0.5;exitY=0;exitDx=0;exitDy=0;entryX=0.5;entryY=1;entryDx=0;entryDy=0;edgeStyle=orthogonalEdgeStyle;" parent="1" source="U8UAb2lUkk0ne-ptLEVk-5" target="U8UAb2lUkk0ne-ptLEVk-1" edge="1">
                    <mxGeometry width="160" relative="1" as="geometry">
                        <mxPoint x="766" y="452" as="sourcePoint"/>
                        <mxPoint x="926" y="452" as="targetPoint"/>
                    </mxGeometry>
                </mxCell>
                <mxCell id="U8UAb2lUkk0ne-ptLEVk-14" value="" style="group" parent="1" vertex="1" connectable="0">
                    <mxGeometry x="1476" y="380" width="170" height="80" as="geometry"/>
                </mxCell>
                <mxCell id="U8UAb2lUkk0ne-ptLEVk-12" value="« Enumeration »&lt;br&gt;&lt;b&gt;DriverManagerOperation&lt;/b&gt;" style="html=1;" parent="U8UAb2lUkk0ne-ptLEVk-14" vertex="1">
                    <mxGeometry width="170" height="27.777777777777775" as="geometry"/>
                </mxCell>
                <mxCell id="U8UAb2lUkk0ne-ptLEVk-13" value="INSTALL_DRIVER&#10;REMOVE_DRIVER" style="text;strokeColor=#666666;fillColor=#f5f5f5;align=left;verticalAlign=middle;spacingLeft=4;spacingRight=4;overflow=hidden;rotatable=0;points=[[0,0.5],[1,0.5]];portConstraint=eastwest;fontColor=#333333;" parent="U8UAb2lUkk0ne-ptLEVk-14" vertex="1">
                    <mxGeometry y="27.78" width="170" height="52.22" as="geometry"/>
                </mxCell>
                <mxCell id="U8UAb2lUkk0ne-ptLEVk-15" value="Use" style="endArrow=open;endSize=12;dashed=1;html=1;exitX=1;exitY=0.5;exitDx=0;exitDy=0;entryX=0;entryY=0.5;entryDx=0;entryDy=0;edgeStyle=elbowEdgeStyle;" parent="1" source="U8UAb2lUkk0ne-ptLEVk-6" target="U8UAb2lUkk0ne-ptLEVk-13" edge="1">
                    <mxGeometry width="160" relative="1" as="geometry">
                        <mxPoint x="1006" y="452" as="sourcePoint"/>
                        <mxPoint x="1166" y="452" as="targetPoint"/>
                    </mxGeometry>
                </mxCell>
                <mxCell id="aS_Waa_V5vZPWyKBkBQV-16" value="Rule" style="swimlane;fontStyle=1;align=center;verticalAlign=top;childLayout=stackLayout;horizontal=1;startSize=26;horizontalStack=0;resizeParent=1;resizeParentMax=0;resizeLast=0;collapsible=1;marginBottom=0;" parent="1" vertex="1">
                    <mxGeometry x="450" y="180" width="200" height="148" as="geometry">
                        <mxRectangle x="120" y="80" width="80" height="26" as="alternateBounds"/>
                    </mxGeometry>
                </mxCell>
                <mxCell id="aS_Waa_V5vZPWyKBkBQV-17" value="+ ruleID: string&#10;+ ruleName: string&#10;+ ruleType: string&#10;+ ruleData: string" style="text;strokeColor=none;fillColor=none;align=left;verticalAlign=top;spacingLeft=4;spacingRight=4;overflow=hidden;rotatable=0;points=[[0,0.5],[1,0.5]];portConstraint=eastwest;" parent="aS_Waa_V5vZPWyKBkBQV-16" vertex="1">
                    <mxGeometry y="26" width="200" height="74" as="geometry"/>
                </mxCell>
                <mxCell id="aS_Waa_V5vZPWyKBkBQV-18" value="" style="line;strokeWidth=1;fillColor=none;align=left;verticalAlign=middle;spacingTop=-1;spacingLeft=3;spacingRight=3;rotatable=0;labelPosition=right;points=[];portConstraint=eastwest;" parent="aS_Waa_V5vZPWyKBkBQV-16" vertex="1">
                    <mxGeometry y="100" width="200" height="8" as="geometry"/>
                </mxCell>
                <mxCell id="aS_Waa_V5vZPWyKBkBQV-19" value="+ &lt;&lt;&#10;+ ruleFromJson(json data) : Rule" style="text;strokeColor=none;fillColor=none;align=left;verticalAlign=top;spacingLeft=4;spacingRight=4;overflow=hidden;rotatable=0;points=[[0,0.5],[1,0.5]];portConstraint=eastwest;" parent="aS_Waa_V5vZPWyKBkBQV-16" vertex="1">
                    <mxGeometry y="108" width="200" height="40" as="geometry"/>
                </mxCell>
                <mxCell id="aS_Waa_V5vZPWyKBkBQV-20" value="Policy" style="swimlane;fontStyle=1;align=center;verticalAlign=top;childLayout=stackLayout;horizontal=1;startSize=26;horizontalStack=0;resizeParent=1;resizeParentMax=0;resizeLast=0;collapsible=1;marginBottom=0;" parent="1" vertex="1">
                    <mxGeometry x="210" y="20" width="200" height="148" as="geometry">
                        <mxRectangle x="120" y="80" width="80" height="26" as="alternateBounds"/>
                    </mxGeometry>
                </mxCell>
                <mxCell id="aS_Waa_V5vZPWyKBkBQV-21" value="+ policyID: string&#10;+ policyName: string&#10;+ numOfRules: int&#10;+ rules: vector&lt;Rule&gt;" style="text;strokeColor=none;fillColor=none;align=left;verticalAlign=top;spacingLeft=4;spacingRight=4;overflow=hidden;rotatable=0;points=[[0,0.5],[1,0.5]];portConstraint=eastwest;" parent="aS_Waa_V5vZPWyKBkBQV-20" vertex="1">
                    <mxGeometry y="26" width="200" height="74" as="geometry"/>
                </mxCell>
                <mxCell id="aS_Waa_V5vZPWyKBkBQV-22" value="" style="line;strokeWidth=1;fillColor=none;align=left;verticalAlign=middle;spacingTop=-1;spacingLeft=3;spacingRight=3;rotatable=0;labelPosition=right;points=[];portConstraint=eastwest;" parent="aS_Waa_V5vZPWyKBkBQV-20" vertex="1">
                    <mxGeometry y="100" width="200" height="8" as="geometry"/>
                </mxCell>
                <mxCell id="aS_Waa_V5vZPWyKBkBQV-23" value="+ &lt;&lt;" style="text;strokeColor=none;fillColor=none;align=left;verticalAlign=top;spacingLeft=4;spacingRight=4;overflow=hidden;rotatable=0;points=[[0,0.5],[1,0.5]];portConstraint=eastwest;" parent="aS_Waa_V5vZPWyKBkBQV-20" vertex="1">
                    <mxGeometry y="108" width="200" height="40" as="geometry"/>
                </mxCell>
                <mxCell id="U8UAb2lUkk0ne-ptLEVk-1" value="ServiceManager" style="swimlane;fontStyle=1;align=center;verticalAlign=top;childLayout=stackLayout;horizontal=1;startSize=26;horizontalStack=0;resizeParent=1;resizeParentMax=0;resizeLast=0;collapsible=1;marginBottom=0;" parent="1" vertex="1">
                    <mxGeometry x="1126" y="170" width="160" height="220" as="geometry">
                        <mxRectangle x="120" y="80" width="80" height="26" as="alternateBounds"/>
                    </mxGeometry>
                </mxCell>
                <mxCell id="U8UAb2lUkk0ne-ptLEVk-2" value="- Name : string&#10;- DispalyName : string&#10;- AccessType: DWORD&#10;- ServiceType: DWORD&#10;- StartType: DWORD&#10;- Path : string" style="text;strokeColor=#666666;fillColor=#f5f5f5;align=left;verticalAlign=top;spacingLeft=4;spacingRight=4;overflow=hidden;rotatable=0;points=[[0,0.5],[1,0.5]];portConstraint=eastwest;fontColor=#333333;" parent="U8UAb2lUkk0ne-ptLEVk-1" vertex="1">
                    <mxGeometry y="26" width="160" height="94" as="geometry"/>
                </mxCell>
                <mxCell id="U8UAb2lUkk0ne-ptLEVk-4" value="+ ServiceManager()&#10;+ ~ServiceManager()&#10;+ InstallService() : bool&#10;+ StartService() : bool&#10;+ StopService() : bool&#10;+ RemoveService() : bool" style="text;align=left;verticalAlign=top;spacingLeft=4;spacingRight=4;overflow=hidden;rotatable=0;points=[[0,0.5],[1,0.5]];portConstraint=eastwest;fillColor=#f5f5f5;strokeColor=#666666;fontColor=#333333;" parent="U8UAb2lUkk0ne-ptLEVk-1" vertex="1">
                    <mxGeometry y="120" width="160" height="100" as="geometry"/>
                </mxCell>
                <mxCell id="U8UAb2lUkk0ne-ptLEVk-5" value="DriverManager" style="swimlane;fontStyle=1;align=center;verticalAlign=top;childLayout=stackLayout;horizontal=1;startSize=26;horizontalStack=0;resizeParent=1;resizeParentMax=0;resizeLast=0;collapsible=1;marginBottom=0;" parent="1" vertex="1">
                    <mxGeometry x="1050" y="492" width="310" height="140" as="geometry">
                        <mxRectangle x="120" y="80" width="80" height="26" as="alternateBounds"/>
                    </mxGeometry>
                </mxCell>
                <mxCell id="U8UAb2lUkk0ne-ptLEVk-6" value="- Name : string&#10;" style="text;strokeColor=#666666;fillColor=#f5f5f5;align=left;verticalAlign=top;spacingLeft=4;spacingRight=4;overflow=hidden;rotatable=0;points=[[0,0.5],[1,0.5]];portConstraint=eastwest;fontColor=#333333;" parent="U8UAb2lUkk0ne-ptLEVk-5" vertex="1">
                    <mxGeometry y="26" width="310" height="24" as="geometry"/>
                </mxCell>
                <mxCell id="U8UAb2lUkk0ne-ptLEVk-7" value="+ ManageDriver( func : DriverManagerOperation) : bool" style="text;align=left;verticalAlign=top;spacingLeft=4;spacingRight=4;overflow=hidden;rotatable=0;points=[[0,0.5],[1,0.5]];portConstraint=eastwest;fillColor=#f5f5f5;strokeColor=#666666;fontColor=#333333;fontStyle=0;whiteSpace=wrap;" parent="U8UAb2lUkk0ne-ptLEVk-5" vertex="1">
                    <mxGeometry y="50" width="310" height="90" as="geometry"/>
                </mxCell>
            </root>
        </mxGraphModel>
    </diagram>
    <diagram id="-QofvuNsWrfqhIywq2xK" name="Artifacts">
        <mxGraphModel dx="1005" dy="660" grid="1" gridSize="10" guides="1" tooltips="1" connect="1" arrows="1" fold="1" page="1" pageScale="1" pageWidth="1100" pageHeight="850" math="0" shadow="0">
            <root>
                <mxCell id="sfnnElSIyRGxwJ8Kz2Fj-0"/>
                <mxCell id="sfnnElSIyRGxwJ8Kz2Fj-1" parent="sfnnElSIyRGxwJ8Kz2Fj-0"/>
                <mxCell id="9EGMFJfMbUvlYMoftzDN-5" value="&lt;p style=&quot;margin: 0px ; margin-top: 4px ; text-align: center&quot;&gt;&lt;i&gt;&amp;lt;&amp;lt;Interface&amp;gt;&amp;gt;&lt;/i&gt;&lt;br&gt;&lt;b&gt;FakeArtifact&lt;/b&gt;&lt;/p&gt;&lt;hr size=&quot;1&quot;&gt;&lt;p style=&quot;margin: 0px ; margin-left: 4px&quot;&gt;- Type: ArtifactType&lt;br&gt;&lt;/p&gt;&lt;p style=&quot;margin: 0px ; margin-left: 4px&quot;&gt;- Args: ArtificatArgs&lt;/p&gt;&lt;hr size=&quot;1&quot;&gt;&lt;p style=&quot;margin: 0px ; margin-left: 4px&quot;&gt;+ FakeArtifact(args: ArtifactArgs)&lt;br&gt;&lt;/p&gt;&lt;p style=&quot;margin: 0px ; margin-left: 4px&quot;&gt;+ Install(): bool&lt;/p&gt;&lt;p style=&quot;margin: 0px ; margin-left: 4px&quot;&gt;+ Uninstall() : bool&lt;br&gt;&lt;/p&gt;" style="verticalAlign=top;align=left;overflow=fill;fontSize=12;fontFamily=Helvetica;html=1;" vertex="1" parent="sfnnElSIyRGxwJ8Kz2Fj-1">
                    <mxGeometry x="640" y="70" width="200" height="130" as="geometry"/>
                </mxCell>
                <mxCell id="9EGMFJfMbUvlYMoftzDN-6" value="&lt;p style=&quot;margin: 4px 0px 0px ; text-align: center&quot;&gt;&lt;i&gt;&amp;lt;&amp;lt;Enumeration&amp;gt;&amp;gt;&lt;/i&gt;&lt;br&gt;&lt;b&gt;AtrifacteType&lt;/b&gt;&lt;/p&gt;&lt;hr&gt;&lt;p style=&quot;margin: 0px ; margin-left: 8px&quot;&gt;&amp;nbsp; Registry&lt;/p&gt;&lt;p style=&quot;margin: 0px ; margin-left: 8px&quot;&gt;&amp;nbsp; Service&lt;/p&gt;&lt;p style=&quot;margin: 0px ; margin-left: 8px&quot;&gt;&amp;nbsp; File&lt;/p&gt;&lt;p style=&quot;margin: 0px ; margin-left: 8px&quot;&gt;&amp;nbsp; Process&lt;/p&gt;" style="verticalAlign=top;align=left;overflow=fill;fontSize=12;fontFamily=Helvetica;html=1;" vertex="1" parent="sfnnElSIyRGxwJ8Kz2Fj-1">
                    <mxGeometry x="160" y="20" width="160" height="110" as="geometry"/>
                </mxCell>
                <mxCell id="9EGMFJfMbUvlYMoftzDN-7" value="" style="endArrow=open;endFill=1;endSize=12;html=1;exitX=0;exitY=0.5;exitDx=0;exitDy=0;entryX=1;entryY=0.5;entryDx=0;entryDy=0;edgeStyle=orthogonalEdgeStyle;" edge="1" parent="sfnnElSIyRGxwJ8Kz2Fj-1" source="9EGMFJfMbUvlYMoftzDN-5" target="9EGMFJfMbUvlYMoftzDN-6">
                    <mxGeometry width="160" relative="1" as="geometry">
                        <mxPoint x="720" y="330" as="sourcePoint"/>
                        <mxPoint x="880" y="330" as="targetPoint"/>
                    </mxGeometry>
                </mxCell>
                <mxCell id="9EGMFJfMbUvlYMoftzDN-12" value="" style="endArrow=block;dashed=1;endFill=0;endSize=12;html=1;exitX=0.5;exitY=0;exitDx=0;exitDy=0;entryX=0.5;entryY=1;entryDx=0;entryDy=0;edgeStyle=orthogonalEdgeStyle;" edge="1" parent="sfnnElSIyRGxwJ8Kz2Fj-1" source="9EGMFJfMbUvlYMoftzDN-8" target="9EGMFJfMbUvlYMoftzDN-5">
                    <mxGeometry width="160" relative="1" as="geometry">
                        <mxPoint x="720" y="330" as="sourcePoint"/>
                        <mxPoint x="880" y="330" as="targetPoint"/>
                    </mxGeometry>
                </mxCell>
                <mxCell id="9EGMFJfMbUvlYMoftzDN-17" value="" style="endArrow=block;dashed=1;endFill=0;endSize=12;html=1;exitX=0.5;exitY=0;exitDx=0;exitDy=0;edgeStyle=orthogonalEdgeStyle;entryX=0.5;entryY=1;entryDx=0;entryDy=0;" edge="1" parent="sfnnElSIyRGxwJ8Kz2Fj-1" source="9EGMFJfMbUvlYMoftzDN-13" target="9EGMFJfMbUvlYMoftzDN-5">
                    <mxGeometry width="160" relative="1" as="geometry">
                        <mxPoint x="490" y="290" as="sourcePoint"/>
                        <mxPoint x="590" y="200" as="targetPoint"/>
                    </mxGeometry>
                </mxCell>
                <mxCell id="9EGMFJfMbUvlYMoftzDN-22" value="" style="endArrow=open;endFill=1;endSize=12;html=1;exitX=0;exitY=0.5;exitDx=0;exitDy=0;entryX=1;entryY=0.5;entryDx=0;entryDy=0;edgeStyle=orthogonalEdgeStyle;" edge="1" parent="sfnnElSIyRGxwJ8Kz2Fj-1" source="9EGMFJfMbUvlYMoftzDN-5" target="9EGMFJfMbUvlYMoftzDN-19">
                    <mxGeometry width="160" relative="1" as="geometry">
                        <mxPoint x="680" y="120" as="sourcePoint"/>
                        <mxPoint x="870" y="45" as="targetPoint"/>
                    </mxGeometry>
                </mxCell>
                <mxCell id="9EGMFJfMbUvlYMoftzDN-23" value="Singleton" style="text;html=1;strokeColor=#b85450;fillColor=#f8cecc;align=center;verticalAlign=middle;whiteSpace=wrap;overflow=hidden;fontColor=#000000;" vertex="1" parent="sfnnElSIyRGxwJ8Kz2Fj-1">
                    <mxGeometry x="1010" width="70" height="20" as="geometry"/>
                </mxCell>
                <mxCell id="9EGMFJfMbUvlYMoftzDN-8" value="FakeRegistry" style="swimlane;fontStyle=1;align=center;verticalAlign=top;childLayout=stackLayout;horizontal=1;startSize=26;horizontalStack=0;resizeParent=1;resizeParentMax=0;resizeLast=0;collapsible=1;marginBottom=0;" vertex="1" parent="sfnnElSIyRGxwJ8Kz2Fj-1">
                    <mxGeometry x="400" y="280" width="200" height="120" as="geometry">
                        <mxRectangle x="250" y="330" width="100" height="26" as="alternateBounds"/>
                    </mxGeometry>
                </mxCell>
                <mxCell id="9EGMFJfMbUvlYMoftzDN-9" value="- Type: ArtifactType&#10;- Args: ArtificatArgs" style="text;strokeColor=none;fillColor=none;align=left;verticalAlign=top;spacingLeft=4;spacingRight=4;overflow=hidden;rotatable=0;points=[[0,0.5],[1,0.5]];portConstraint=eastwest;" vertex="1" parent="9EGMFJfMbUvlYMoftzDN-8">
                    <mxGeometry y="26" width="200" height="38" as="geometry"/>
                </mxCell>
                <mxCell id="9EGMFJfMbUvlYMoftzDN-10" value="" style="line;strokeWidth=1;fillColor=none;align=left;verticalAlign=middle;spacingTop=-1;spacingLeft=3;spacingRight=3;rotatable=0;labelPosition=right;points=[];portConstraint=eastwest;" vertex="1" parent="9EGMFJfMbUvlYMoftzDN-8">
                    <mxGeometry y="64" width="200" height="8" as="geometry"/>
                </mxCell>
                <mxCell id="9EGMFJfMbUvlYMoftzDN-11" value="+ FakeRegistry(args: ArtifactArgs)&#10;+ Install(): bool&#10;+ Uninstall() : bool" style="text;strokeColor=none;fillColor=none;align=left;verticalAlign=middle;spacingLeft=4;spacingRight=4;overflow=hidden;rotatable=0;points=[[0,0.5],[1,0.5]];portConstraint=eastwest;" vertex="1" parent="9EGMFJfMbUvlYMoftzDN-8">
                    <mxGeometry y="72" width="200" height="48" as="geometry"/>
                </mxCell>
                <mxCell id="9EGMFJfMbUvlYMoftzDN-13" value="FakeService" style="swimlane;fontStyle=1;align=center;verticalAlign=top;childLayout=stackLayout;horizontal=1;startSize=26;horizontalStack=0;resizeParent=1;resizeParentMax=0;resizeLast=0;collapsible=1;marginBottom=0;" vertex="1" parent="sfnnElSIyRGxwJ8Kz2Fj-1">
                    <mxGeometry x="640" y="280" width="200" height="120" as="geometry">
                        <mxRectangle x="250" y="330" width="100" height="26" as="alternateBounds"/>
                    </mxGeometry>
                </mxCell>
                <mxCell id="9EGMFJfMbUvlYMoftzDN-14" value="- Type: ArtifactType&#10;- Args: ArtificatArgs" style="text;strokeColor=none;fillColor=none;align=left;verticalAlign=top;spacingLeft=4;spacingRight=4;overflow=hidden;rotatable=0;points=[[0,0.5],[1,0.5]];portConstraint=eastwest;" vertex="1" parent="9EGMFJfMbUvlYMoftzDN-13">
                    <mxGeometry y="26" width="200" height="38" as="geometry"/>
                </mxCell>
                <mxCell id="9EGMFJfMbUvlYMoftzDN-15" value="" style="line;strokeWidth=1;fillColor=none;align=left;verticalAlign=middle;spacingTop=-1;spacingLeft=3;spacingRight=3;rotatable=0;labelPosition=right;points=[];portConstraint=eastwest;" vertex="1" parent="9EGMFJfMbUvlYMoftzDN-13">
                    <mxGeometry y="64" width="200" height="8" as="geometry"/>
                </mxCell>
                <mxCell id="9EGMFJfMbUvlYMoftzDN-16" value="+ FakeService(args: ArtifactArgs)&#10;+ Install(): bool&#10;+ Uninstall() : bool" style="text;strokeColor=none;fillColor=none;align=left;verticalAlign=middle;spacingLeft=4;spacingRight=4;overflow=hidden;rotatable=0;points=[[0,0.5],[1,0.5]];portConstraint=eastwest;" vertex="1" parent="9EGMFJfMbUvlYMoftzDN-13">
                    <mxGeometry y="72" width="200" height="48" as="geometry"/>
                </mxCell>
                <mxCell id="9EGMFJfMbUvlYMoftzDN-24" value="FakeFile" style="swimlane;fontStyle=1;align=center;verticalAlign=top;childLayout=stackLayout;horizontal=1;startSize=26;horizontalStack=0;resizeParent=1;resizeParentMax=0;resizeLast=0;collapsible=1;marginBottom=0;" vertex="1" parent="sfnnElSIyRGxwJ8Kz2Fj-1">
                    <mxGeometry x="880" y="280" width="200" height="120" as="geometry">
                        <mxRectangle x="250" y="330" width="100" height="26" as="alternateBounds"/>
                    </mxGeometry>
                </mxCell>
                <mxCell id="9EGMFJfMbUvlYMoftzDN-25" value="- Type: ArtifactType&#10;- Args: ArtificatArgs" style="text;strokeColor=none;fillColor=none;align=left;verticalAlign=top;spacingLeft=4;spacingRight=4;overflow=hidden;rotatable=0;points=[[0,0.5],[1,0.5]];portConstraint=eastwest;" vertex="1" parent="9EGMFJfMbUvlYMoftzDN-24">
                    <mxGeometry y="26" width="200" height="38" as="geometry"/>
                </mxCell>
                <mxCell id="9EGMFJfMbUvlYMoftzDN-26" value="" style="line;strokeWidth=1;fillColor=none;align=left;verticalAlign=middle;spacingTop=-1;spacingLeft=3;spacingRight=3;rotatable=0;labelPosition=right;points=[];portConstraint=eastwest;" vertex="1" parent="9EGMFJfMbUvlYMoftzDN-24">
                    <mxGeometry y="64" width="200" height="8" as="geometry"/>
                </mxCell>
                <mxCell id="9EGMFJfMbUvlYMoftzDN-27" value="+ FakeFile(args: ArtifactArgs)&#10;+ Install(): bool&#10;+ Uninstall() : bool" style="text;strokeColor=none;fillColor=none;align=left;verticalAlign=middle;spacingLeft=4;spacingRight=4;overflow=hidden;rotatable=0;points=[[0,0.5],[1,0.5]];portConstraint=eastwest;" vertex="1" parent="9EGMFJfMbUvlYMoftzDN-24">
                    <mxGeometry y="72" width="200" height="48" as="geometry"/>
                </mxCell>
                <mxCell id="9EGMFJfMbUvlYMoftzDN-28" value="" style="endArrow=block;dashed=1;endFill=0;endSize=12;html=1;exitX=0.5;exitY=0;exitDx=0;exitDy=0;edgeStyle=orthogonalEdgeStyle;entryX=0.5;entryY=1;entryDx=0;entryDy=0;" edge="1" parent="sfnnElSIyRGxwJ8Kz2Fj-1" source="9EGMFJfMbUvlYMoftzDN-24" target="9EGMFJfMbUvlYMoftzDN-5">
                    <mxGeometry width="160" relative="1" as="geometry">
                        <mxPoint x="750" y="290" as="sourcePoint"/>
                        <mxPoint x="620" y="200" as="targetPoint"/>
                    </mxGeometry>
                </mxCell>
                <mxCell id="9EGMFJfMbUvlYMoftzDN-29" value="Using Command Pattern" style="text;html=1;strokeColor=none;fillColor=none;align=center;verticalAlign=middle;whiteSpace=wrap;rounded=0;fontColor=#FFFFFF;" vertex="1" parent="sfnnElSIyRGxwJ8Kz2Fj-1">
                    <mxGeometry x="920" y="40" width="150" height="20" as="geometry"/>
                </mxCell>
                <mxCell id="9EGMFJfMbUvlYMoftzDN-18" value="ArtifactArgs" style="swimlane;fontStyle=1;align=center;verticalAlign=top;childLayout=stackLayout;horizontal=1;startSize=26;horizontalStack=0;resizeParent=1;resizeParentMax=0;resizeLast=0;collapsible=1;marginBottom=0;" vertex="1" parent="sfnnElSIyRGxwJ8Kz2Fj-1">
                    <mxGeometry x="160" y="160" width="160" height="108" as="geometry">
                        <mxRectangle x="250" y="330" width="100" height="26" as="alternateBounds"/>
                    </mxGeometry>
                </mxCell>
                <mxCell id="9EGMFJfMbUvlYMoftzDN-19" value="- vector&lt;string&gt; " style="text;strokeColor=none;fillColor=none;align=left;verticalAlign=top;spacingLeft=4;spacingRight=4;overflow=hidden;rotatable=0;points=[[0,0.5],[1,0.5]];portConstraint=eastwest;" vertex="1" parent="9EGMFJfMbUvlYMoftzDN-18">
                    <mxGeometry y="26" width="160" height="24" as="geometry"/>
                </mxCell>
                <mxCell id="9EGMFJfMbUvlYMoftzDN-20" value="" style="line;strokeWidth=1;fillColor=none;align=left;verticalAlign=middle;spacingTop=-1;spacingLeft=3;spacingRight=3;rotatable=0;labelPosition=right;points=[];portConstraint=eastwest;" vertex="1" parent="9EGMFJfMbUvlYMoftzDN-18">
                    <mxGeometry y="50" width="160" height="8" as="geometry"/>
                </mxCell>
                <mxCell id="9EGMFJfMbUvlYMoftzDN-21" value="+ FakeArtifacts(...)&#10;+ Install(): bool&#10;+ Uninstall() : bool" style="text;strokeColor=none;fillColor=none;align=left;verticalAlign=top;spacingLeft=4;spacingRight=4;overflow=hidden;rotatable=0;points=[[0,0.5],[1,0.5]];portConstraint=eastwest;" vertex="1" parent="9EGMFJfMbUvlYMoftzDN-18">
                    <mxGeometry y="58" width="160" height="50" as="geometry"/>
                </mxCell>
            </root>
        </mxGraphModel>
    </diagram>
</mxfile>